<svg id="Layer_8" data-name="Layer 8" xmlns="http://www.w3.org/2000/svg" viewBox="0 0 311.58 49.21"><defs><style>.cls-1{fill:#fff;}</style></defs><title>Logo Design v2 Website Head</title><path class="cls-1" d="M19.17,0H54.68a0,0,0,0,1,0,0V36.23a13,13,0,0,1-13,13H0a0,0,0,0,1,0,0v-30A19.17,19.17,0,0,1,19.17,0Z"/><path d="M65.23,64.44a5.22,5.22,0,0,1-3.78-1.09,5.31,5.31,0,0,1-1.51-4V44Q54.18,54.25,48.4,64.45H43.08L39,44.82l-6.66,19.6s0,0,0,0H27L37.26,34.06h0a6.37,6.37,0,0,1,6.25,5.13L47.05,57,59.92,34.08l0,0h5.28Z" transform="translate(-19.21 -25.39)"/><path class="cls-1" d="M106.06,64.64h-1.47l-13-29.31h0a2.38,2.38,0,0,1,2.19,1.36l11.59,25.83L117,36.69a2.39,2.39,0,0,1,2.19-1.36h0Z" transform="translate(-19.21 -25.39)"/><path class="cls-1" d="M141.38,64.56a14.83,14.83,0,0,1-10.94-4.21A13.57,13.57,0,0,1,126.08,50a13.7,13.7,0,0,1,4.38-10.36,15.59,15.59,0,0,1,21-.32,13.85,13.85,0,0,1,4,10.33,6,6,0,0,1-.05,1h-28a12.88,12.88,0,0,0,4.2,9,13.66,13.66,0,0,0,9.72,3.69,14.16,14.16,0,0,0,7-1.73,16.65,16.65,0,0,0,4.83-3.93l1.17.54A16,16,0,0,1,141.38,64.56Zm-.1-28a12.7,12.7,0,0,0-9.78,4q-4,4.11-4,8.83h26.73a12.64,12.64,0,0,0-3.56-9.08A12.37,12.37,0,0,0,141.28,36.57Z" transform="translate(-19.21 -25.39)"/><path class="cls-1" d="M179.19,37l-.84,1.09a8,8,0,0,0-4.81-1.35,11,11,0,0,0-6.1,1.73,9.52,9.52,0,0,0-3.64,3.81V64.72h-1.4v-28h1.4V40a11,11,0,0,1,3.95-3.21,12.6,12.6,0,0,1,5.9-1.34A10.32,10.32,0,0,1,179.19,37Z" transform="translate(-19.21 -25.39)"/><path class="cls-1" d="M198.08,63.33a12.89,12.89,0,0,0,7.47-2,5.94,5.94,0,0,0,2.9-5A4.87,4.87,0,0,0,206.16,52c-1.52-1-4.3-1.8-8.34-2.36s-6.64-1.33-8.21-2.22A5,5,0,0,1,187.08,43a6.45,6.45,0,0,1,3.09-5.46,13.08,13.08,0,0,1,7.7-2.16,14.65,14.65,0,0,1,10.68,4.27l-1,.84A13,13,0,0,0,198,36.57a12.86,12.86,0,0,0-6.85,1.73,5.16,5.16,0,0,0-2.71,4.52,3.88,3.88,0,0,0,2,3.64c1.31.76,4,1.44,8.13,2.07a42,42,0,0,1,5.63,1.18,8.58,8.58,0,0,1,4,2.21A5.55,5.55,0,0,1,209.77,56a7.53,7.53,0,0,1-3.05,6.13q-3.06,2.43-8.64,2.43-7.7,0-12-5.51l1.07-.74Q191.07,63.33,198.08,63.33Z" transform="translate(-19.21 -25.39)"/><path class="cls-1" d="M260.58,49.1V59.92a4.86,4.86,0,0,1-5,4.66h0V48.84q0-4.61-1.48-6.75c-1-1.44-2.81-2.15-5.46-2.15a7,7,0,0,0-5.42,2.15,8.18,8.18,0,0,0-2,5.82V64.58h-5V48.38c0-2.83-.53-5-1.6-6.34s-2.86-2.1-5.39-2.1a6.8,6.8,0,0,0-5.26,2.43,8.65,8.65,0,0,0-2.18,6v16.2h-5V41.28a4.87,4.87,0,0,1,5-4.66h0V38.9a6.68,6.68,0,0,1,3.16-2.59,11.09,11.09,0,0,1,4.67-1,12.93,12.93,0,0,1,5.48,1,10.28,10.28,0,0,1,3.86,3.23,10.07,10.07,0,0,1,4.28-3.1,14.81,14.81,0,0,1,5.68-1.14c4.17,0,7.18,1,9,3S260.58,43.89,260.58,49.1Z" transform="translate(-19.21 -25.39)"/><path class="cls-1" d="M299,50a13.26,13.26,0,0,1-4.65,10.33,16.65,16.65,0,0,1-22.29,0A13.23,13.23,0,0,1,267.47,50a13.24,13.24,0,0,1,4.62-10.3,16.56,16.56,0,0,1,22.29,0A13.27,13.27,0,0,1,299,50Zm-23.54-7.18a9.58,9.58,0,0,0,0,14.36,11.54,11.54,0,0,0,15.52,0,9.58,9.58,0,0,0,0-14.36,11.54,11.54,0,0,0-15.52,0Z" transform="translate(-19.21 -25.39)"/><path class="cls-1" d="M318.3,60.14A11.61,11.61,0,0,0,323.93,59,3.68,3.68,0,0,0,326,55.62a2.62,2.62,0,0,0-1.86-2.56A14.49,14.49,0,0,0,320.37,52L318,51.59c-4.07-.69-6.93-1.59-8.55-2.71a5.68,5.68,0,0,1-2.45-5,7.38,7.38,0,0,1,3.16-6.07A12.58,12.58,0,0,1,318,35.35a16.78,16.78,0,0,1,6.25,1,18,18,0,0,1,5.13,3.29l-3.35,2.9a11.56,11.56,0,0,0-7.6-2.8,10.71,10.71,0,0,0-4.68.94,3.18,3.18,0,0,0-2,3,2.37,2.37,0,0,0,1.52,2.18,17.28,17.28,0,0,0,5,1.26,59.14,59.14,0,0,1,6.53,1.33q6,1.73,6,7.52a7.32,7.32,0,0,1-3.4,6.1q-3.4,2.46-9.09,2.46A15.85,15.85,0,0,1,305.92,59l3.72-2.9a19.89,19.89,0,0,0,1.91,2Q313.83,60.14,318.3,60.14Z" transform="translate(-19.21 -25.39)"/></svg>